<svg width="176" height="23" viewBox="0 0 176 23" fill="none" xmlns="http://www.w3.org/2000/svg">
<line y1="10" x2="176" y2="10" stroke="#F8F7F4" stroke-opacity="0.5" stroke-width="2"/>
<line x1="16" y1="10" x2="122" y2="10" stroke="#F8F7F4" stroke-width="2"/>
<path opacity="0.3" d="M121 20C118.348 20 115.804 18.9464 113.929 17.0711C112.054 15.1957 111 12.6522 111 10V12C111 14.6522 112.054 17.1957 113.929 19.0711C115.804 20.9464 118.348 22 121 22C123.652 22 126.196 20.9464 128.071 19.0711C129.946 17.1957 131 14.6522 131 12V10C131 12.6522 129.946 15.1957 128.071 17.0711C126.196 18.9464 123.652 20 121 20Z" fill="#ABABAB"/>
<path d="M121 20C126.523 20 131 15.5228 131 10C131 4.47715 126.523 0 121 0C115.477 0 111 4.47715 111 10C111 15.5228 115.477 20 121 20Z" fill="white"/>
<path d="M121 12C122.105 12 123 11.1046 123 10C123 8.89543 122.105 8 121 8C119.895 8 119 8.89543 119 10C119 11.1046 119.895 12 121 12Z" fill="#ABABAB"/>
<path opacity="0.3" d="M23 21C20.3478 21 17.8043 19.9464 15.9289 18.0711C14.0536 16.1957 13 13.6522 13 11V13C13 15.6522 14.0536 18.1957 15.9289 20.0711C17.8043 21.9464 20.3478 23 23 23C25.6522 23 28.1957 21.9464 30.0711 20.0711C31.9464 18.1957 33 15.6522 33 13V11C33 13.6522 31.9464 16.1957 30.0711 18.0711C28.1957 19.9464 25.6522 21 23 21Z" fill="#ABABAB"/>
<path d="M23 21C28.5228 21 33 16.5228 33 11C33 5.47715 28.5228 1 23 1C17.4772 1 13 5.47715 13 11C13 16.5228 17.4772 21 23 21Z" fill="white"/>
<path d="M23 13C24.1046 13 25 12.1046 25 11C25 9.89543 24.1046 9 23 9C21.8954 9 21 9.89543 21 11C21 12.1046 21.8954 13 23 13Z" fill="#ABABAB"/>
</svg>
